<svg xmlns="http://www.w3.org/2000/svg" xmlns:xlink="http://www.w3.org/1999/xlink" xmlns:lucid="lucid" width="1870.87" height="1322.83"><g transform="translate(0 0)" lucid:page-tab-id="0_0"><path d="M280 180c0 11.05-8.95 20-20 20s-20-8.95-20-20 8.95-20 20-20 20 8.95 20 20z" stroke="#3a414a" fill="#fff"/><use xlink:href="#a" transform="matrix(1,0,0,1,245,165) translate(8.214876543209877 21.430555555555557)"/><path d="M480 180c0 11.05-8.95 20-20 20s-20-8.95-20-20 8.95-20 20-20 20 8.95 20 20z" stroke="#3a414a" fill="#fff"/><use xlink:href="#b" transform="matrix(1,0,0,1,445,165) translate(8.214876543209877 21.430555555555557)"/><path d="M260 159v-33a6 6 0 0 1 6-6h188a6 6 0 0 1 6 6v17.12" stroke="#3a414a" fill="none"/><path d="M260.5 159.56l-.48-.06-.52.02V159h1z" stroke="#3a414a" stroke-width=".05" fill="#3a414a"/><path d="M460 157.88l-4.64-14.26h9.28z" stroke="#3a414a" fill="#3a414a"/><path d="M460 201v33a6 6 0 0 1-6 6H266a6 6 0 0 1-6-6v-17.12" stroke="#3a414a" fill="none"/><path d="M459.98 200.5l.52-.02v.53h-1v-.56z" stroke="#3a414a" stroke-width=".05" fill="#3a414a"/><path d="M260 202.12l4.64 14.26h-9.28z" stroke="#3a414a" fill="#3a414a"/><path d="M600 180c0 11.05-8.95 20-20 20s-20-8.95-20-20 8.95-20 20-20 20 8.95 20 20z" stroke="#3a414a" fill="#fff"/><use xlink:href="#c" transform="matrix(1,0,0,1,565,165) translate(8.214876543209877 21.430555555555557)"/><path d="M800 180c0 11.05-8.95 20-20 20s-20-8.95-20-20 8.95-20 20-20 20 8.95 20 20z" stroke="#3a414a" fill="#fff"/><use xlink:href="#b" transform="matrix(1,0,0,1,765,165) translate(8.214876543209877 21.430555555555557)"/><path d="M580 159v-33a6 6 0 0 1 6-6h57.12" stroke="#3a414a" fill="none"/><path d="M580.5 159.56l-.48-.06-.52.02V159h1z" stroke="#3a414a" stroke-width=".05" fill="#3a414a"/><path d="M657.88 120l-14.26 4.64v-9.28z" stroke="#3a414a" fill="#3a414a"/><path d="M780 201v33a6 6 0 0 1-6 6h-57.12" stroke="#3a414a" fill="none"/><path d="M779.98 200.5l.52-.02v.53h-1v-.56z" stroke="#3a414a" stroke-width=".05" fill="#3a414a"/><path d="M702.12 240l14.26-4.64v9.28z" stroke="#3a414a" fill="#3a414a"/><path d="M700 120c0 11.05-8.95 20-20 20s-20-8.95-20-20 8.95-20 20-20 20 8.95 20 20z" stroke="#3a414a" fill="#fff"/><use xlink:href="#d" transform="matrix(1,0,0,1,665,105) translate(8.214876543209877 21.430555555555557)"/><path d="M700 240c0 11.05-8.95 20-20 20s-20-8.95-20-20 8.95-20 20-20 20 8.95 20 20z" stroke="#3a414a" fill="#fff"/><use xlink:href="#a" transform="matrix(1,0,0,1,665,225) translate(8.214876543209877 21.430555555555557)"/><path d="M659 240h-73a6 6 0 0 1-6-6v-17.12" stroke="#3a414a" fill="none"/><path d="M659.5 239.98l.02.52H659v-1h.56z" stroke="#3a414a" stroke-width=".05" fill="#3a414a"/><path d="M580 202.12l4.64 14.26h-9.28z" stroke="#3a414a" fill="#3a414a"/><path d="M701 120h73a6 6 0 0 1 6 6v17.12" stroke="#3a414a" fill="none"/><path d="M701 120.5h-.56l.06-.48-.02-.52h.53z" stroke="#3a414a" stroke-width=".05" fill="#3a414a"/><path d="M780 157.88l-4.64-14.26h9.28z" stroke="#3a414a" fill="#3a414a"/><path d="M360 246a6 6 0 0 1 6-6h8a6 6 0 0 1 6 6v8a6 6 0 0 1-6 6h-8a6 6 0 0 1-6-6z" stroke="#000" stroke-opacity="0" fill="#fff" fill-opacity="0"/><use xlink:href="#e" transform="matrix(1,0,0,1,365,245) translate(-1.667751736111109 17.773437499999993)"/><path d="M340 126a6 6 0 0 1 6-6h8a6 6 0 0 1 6 6v8a6 6 0 0 1-6 6h-8a6 6 0 0 1-6-6z" stroke="#000" stroke-opacity="0" fill="#fff" fill-opacity="0"/><use xlink:href="#f" transform="matrix(1,0,0,1,345,125) translate(-1.667751736111109 17.773437499999993)"/><path d="M720 126a6 6 0 0 1 6-6h8a6 6 0 0 1 6 6v8a6 6 0 0 1-6 6h-8a6 6 0 0 1-6-6z" stroke="#000" stroke-opacity="0" fill="#fff" fill-opacity="0"/><use xlink:href="#f" transform="matrix(1,0,0,1,725,125) translate(-1.667751736111109 17.773437499999993)"/><path d="M740 246a6 6 0 0 1 6-6h8a6 6 0 0 1 6 6v8a6 6 0 0 1-6 6h-8a6 6 0 0 1-6-6z" stroke="#000" stroke-opacity="0" fill="#fff" fill-opacity="0"/><use xlink:href="#e" transform="matrix(1,0,0,1,745,245.00000000000003) translate(-1.667751736111109 17.773437499999993)"/><path d="M350 186a6 6 0 0 1 6-6h8a6 6 0 0 1 6 6v8a6 6 0 0 1-6 6h-8a6 6 0 0 1-6-6z" stroke="#000" stroke-opacity="0" fill="#fff" fill-opacity="0"/><use xlink:href="#g" transform="matrix(1,0,0,1,355,185) translate(-2.9938271604938267 17.77777777777778)"/><path d="M670 186a6 6 0 0 1 6-6h8a6 6 0 0 1 6 6v8a6 6 0 0 1-6 6h-8a6 6 0 0 1-6-6z" stroke="#000" stroke-opacity="0" fill="#fff" fill-opacity="0"/><use xlink:href="#h" transform="matrix(1,0,0,1,675,185) translate(-2.9938271604938267 17.77777777777778)"/><defs><path fill="#3a414a" d="M27 0v-27h64v-190l-56 39v-29l58-41h29v221h61V0H27" id="i"/><use transform="matrix(0.06790123456790123,0,0,0.06790123456790123,0,0)" xlink:href="#i" id="a"/><path fill="#3a414a" d="M101-251c68 0 85 55 85 127S166 4 100 4C33 4 14-52 14-124c0-73 17-127 87-127zm-1 229c47 0 54-49 54-102s-4-102-53-102c-51 0-55 48-55 102 0 53 5 102 54 102" id="j"/><use transform="matrix(0.06790123456790123,0,0,0.06790123456790123,0,0)" xlink:href="#j" id="b"/><path fill="#3a414a" d="M101-251c82-7 93 87 43 132L82-64C71-53 59-42 53-27h129V0H18c2-99 128-94 128-182 0-28-16-43-45-43s-46 15-49 41l-32-3c6-41 34-60 81-64" id="k"/><use transform="matrix(0.06790123456790123,0,0,0.06790123456790123,0,0)" xlink:href="#k" id="c"/><path fill="#3a414a" d="M126-127c33 6 58 20 58 59 0 88-139 92-164 29-3-8-5-16-6-25l32-3c6 27 21 44 54 44 32 0 52-15 52-46 0-38-36-46-79-43v-28c39 1 72-4 72-42 0-27-17-43-46-43-28 0-47 15-49 41l-32-3c6-42 35-63 81-64 48-1 79 21 79 65 0 36-21 52-52 59" id="l"/><use transform="matrix(0.06790123456790123,0,0,0.06790123456790123,0,0)" xlink:href="#l" id="d"/><path fill="#3a414a" d="M1000-272c3 95 12 159 101 161 21 0 41-3 59-7V-6c-44 10-86 16-139 16-141 2-191-84-197-217h-6C748-76 648 20 446 20c-207 0-318-120-318-322 0-266 194-348 454-354l236-4c12-191-40-305-222-305-140 0-220 47-232 172l-188-17c33-204 181-292 423-292 255 0 401 118 401 364v466zm-683-27c0 109 63 184 175 182 166-3 259-96 306-217 24-65 20-120 20-200-232 7-501-28-501 235" id="m"/><use transform="matrix(0.01085069444444444,0,0,0.01085069444444444,0,0)" xlink:href="#m" id="e"/><path fill="#3a414a" d="M365-904c58-129 161-200 334-200 130 0 228 46 293 138s98 233 98 420c0 189-34 331-102 425S824 20 698 20c-170 0-275-64-336-184 0 55-3 116-9 164H179c5-68 6-147 6-223v-1261h180c-2 193 4 394-4 580h4zm283 791c221 0 256-197 256-427 0-229-34-425-254-425-236 0-285 195-285 441 0 237 53 411 283 411" id="n"/><use transform="matrix(0.01085069444444444,0,0,0.01085069444444444,0,0)" xlink:href="#n" id="f"/><path fill="#3a414a" d="M183 0l-10-63H79L44 0H-7l138-248h61L234 0h-51zm-14-102l-15-108c-16 38-36 73-55 108h70" id="o"/><use transform="matrix(0.06172839506172839,0,0,0.06172839506172839,0,0)" xlink:href="#o" id="g"/><path fill="#3a414a" d="M240-76C239 26 104-5 6 0l48-248c79 4 193-21 193 58 0 38-25 53-57 60 29 5 49 21 50 54zm-45-106c0-40-58-24-96-27l-12 61c45-3 108 12 108-34zm-7 105c0-44-65-31-109-33L66-38c51-3 122 14 122-39" id="p"/><use transform="matrix(0.06172839506172839,0,0,0.06172839506172839,0,0)" xlink:href="#p" id="h"/></defs></g></svg>